<?xml version="1.0" standalone="no"?>
<!DOCTYPE svg PUBLIC "-//W3C//DTD SVG 20010904//EN"
 "http://www.w3.org/TR/2001/REC-SVG-20010904/DTD/svg10.dtd">
<svg version="1.0" xmlns="http://www.w3.org/2000/svg"
 width="700.000000pt" height="700.000000pt" viewBox="0 0 700.000000 700.000000"
 preserveAspectRatio="xMidYMid meet">
<metadata>
Created by potrace 1.11, written by Peter Selinger 2001-2013
</metadata>
<g transform="translate(0.000000,700.000000) scale(0.100000,-0.100000)"
fill="#000000" stroke="none">
<path d="M3248 6995 c-2 -1 -46 -5 -98 -9 -149 -9 -373 -34 -458 -51 -11 -2
-35 -6 -53 -9 -68 -11 -295 -57 -334 -67 -22 -6 -48 -13 -59 -15 -93 -18 -525
-155 -611 -194 -11 -5 -72 -30 -135 -56 -303 -125 -792 -398 -949 -531 -129
-108 -222 -317 -221 -497 1 -72 5 -102 25 -194 21 -90 107 -225 198 -308 53
-49 167 -119 212 -131 6 -2 42 -11 80 -22 50 -14 99 -18 172 -17 l102 1 20
-40 c19 -40 90 -189 159 -335 198 -423 204 -433 281 -432 l38 1 52 -108 c55
-117 58 -126 37 -138 -19 -12 -36 -48 -36 -78 0 -31 -5 -20 193 -435 145 -306
245 -516 282 -595 23 -49 66 -138 94 -197 61 -128 134 -282 185 -393 21 -44
42 -88 46 -97 5 -9 93 -193 196 -410 102 -216 211 -445 241 -508 30 -63 69
-144 85 -180 17 -36 60 -126 96 -200 35 -74 99 -209 142 -300 218 -462 202
-435 259 -445 61 -10 95 13 130 90 11 22 47 98 81 170 80 167 144 302 185 390
18 39 61 129 95 200 34 72 80 168 102 215 22 47 65 137 95 200 30 63 70 147
88 185 18 39 70 146 114 239 45 92 81 169 81 171 0 3 51 110 193 405 17 36 32
67 32 70 1 3 22 48 47 100 119 247 159 331 196 410 67 144 142 300 189 400 25
52 70 147 101 210 141 298 142 301 123 349 -7 16 -21 32 -31 37 -17 8 -15 18
37 126 l56 117 38 -1 c60 -1 84 22 135 130 26 53 74 153 107 222 32 69 76 161
97 205 21 44 56 118 78 164 l40 84 118 2 c149 2 230 24 354 96 96 55 214 192
263 305 78 177 70 408 -19 576 -34 63 -113 165 -150 193 -15 11 -32 25 -38 31
-15 15 -179 120 -236 152 -25 14 -47 28 -50 32 -14 19 -386 209 -583 299 -134
61 -559 211 -598 211 -9 0 -19 3 -23 7 -3 4 -12 8 -19 9 -7 1 -55 14 -107 28
-207 56 -584 122 -805 142 -38 3 -90 8 -115 10 -50 6 -637 14 -642 9z"/>
</g>
</svg>
